# xmcd
#
# Track frame offsets:
#	150
#	15816
#	31927
#	46934
#	65576
#	85069
#	105230
#	121770
#	127000
#	139142
#	151599
#	171276
#	192134
#	207783
#	224580
#	240754
#
# Disc length: 3476 seconds
#
# Revision: 0
# Processed by: cddbd v1.5.1PL2 Copyright (c) Steve Scherf et al.
# Submitted via: EasyCDDAExtractor 8.1.2.3
#
DISCID=c30d9210
DTITLE=Freko Ding - Atk'lan solo
DYEAR=2003
DGENRE=Rap
TTITLE0=L'Histoire de Deux Lascars
TTITLE1=C'est Grave
TTITLE2=Mangeur De Pierre
TTITLE3=Tuer Ou Mourrir
TTITLE4=Mangeur De Pierres 2003 
TTITLE5=Balle De L'Inconnu
TTITLE6=Elles Aiment Cà
TTITLE7=Homme de Néandertal (Interlude)
TTITLE8=Les petits momes
TTITLE9=Esprit Speed
TTITLE10=J'Veux Reussir
TTITLE11=Association De Gens Normals
TTITLE12=Clones
TTITLE13=Nouvelle Génération
TTITLE14=Rap De Pit
TTITLE15=Comportement Nevrotik
EXTD=
EXTT0=
EXTT1=
EXTT2=
EXTT3=
EXTT4=
EXTT5=
EXTT6=
EXTT7=
EXTT8=
EXTT9=
EXTT10=
EXTT11=
EXTT12=
EXTT13=
EXTT14=
EXTT15=
PLAYORDER=
